<svg xmlns="http://www.w3.org/2000/svg" viewBox="0 0 300 300">
  <g transform="matrix(0.1, 0, 0, -0.1, 73, 243.351)" stroke="none">
    <path fill="#8231d3" d="M 515 1546 C 327 1487 200 1298 200 1081 C 200 954 259 810 347 723 C 421 649 434 639 502 606 C 585 566 654 550 756 550 L 847 550 L 918 698 C 957 779 1011.468 923.059 1019.249 957.76 C 1027.091 992.733 1032.936 981.198 1036.795 1078.347 C 1038.981 1133.385 1033.71 1170.724 1014.84 1238.838 C 983.499 1351.97 911 1439 828 1497 C 745 1554 608 1576 515 1546 Z M 673.58 1287.336 C 700.089 1251.349 693.698 1206.155 680.832 1177.326 C 664.832 1144.326 652 1130 605 1130 C 539 1130 507 1219 550 1280 C 583 1327 636.523 1337.643 673.58 1287.336 Z"></path>
    <path fill="#8231d3" d="M300 736 c0 -6 113 -213 143 -261 76 -123 170 -265 176 -265 6 0 158
230 167 254 3 9 -16 16 -63 25 -149 27 -248 77 -350 178 -40 39 -73 70 -73 69z"></path>
    <path fill="#70439E" d="M 650 1633 C 613 1626 469 1556 440 1532 C 422 1517 432 1520 480 1543 C 493.959 1549.624 505.763 1553.469 516.253 1557.003 C 527.156 1560.677 536.664 1563.951 547.029 1566.229 C 568.841 1571.023 593.083 1574.517 635 1574 C 755 1573 820 1548 904 1469 C 1014 1367 1066 1240 1064 1080 C 1063 964 1032 870 935 682 C 872 562 872 560 898 566 C 1164 628 1340 842 1340 1100 C 1340 1314 1241.679 1479.418 1043.951 1593.123 C 985.96 1626.471 858.168 1659.455 799.659 1656.887 C 713.205 1653.092 664 1636 650 1633 Z"></path>
    <path fill="#70439E" d="M425 626 c70 -63 188 -112 323 -135 51 -8 53 -8 67 18 l14 27 -85 2
c-118 1 -203 28 -324 103 l-35 21 40 -36z"></path>
  </g>
</svg>