<svg xmlns="http://www.w3.org/2000/svg" viewBox="0 0 300 300">
  <g transform="matrix(0.406499, 0, 0, 0.344439, -186.270981, 73.235748)" style="">
    <path style="stroke-width: 1; fill: #8231d3;" d="M 792.327 49.304 C 793.262 49.333 793.262 49.333 794.216 49.362 C 798.004 56.778 799.897 64.395 801.716 72.487 C 801.943 73.481 801.943 73.481 802.174 74.495 C 804.714 85.617 806.844 96.774 808.665 108.036 C 809.311 111.936 809.996 115.829 810.685 119.722 C 813.349 134.838 815.846 149.913 817.575 165.171 C 818.007 168.897 818.569 172.58 819.204 176.276 C 820.229 182.265 820.968 188.264 821.653 194.3 C 822.563 202.085 823.525 209.856 824.653 217.612 C 824.772 218.432 824.891 219.252 825.014 220.097 C 825.269 221.853 825.524 223.61 825.78 225.366 C 826.667 231.467 827.541 237.57 828.403 243.675 C 828.582 244.909 828.762 246.144 828.946 247.416 C 829.796 253.461 830.436 259.258 830.216 265.362 C 831.529 265.351 832.843 265.339 834.196 265.327 C 835.932 265.318 837.668 265.309 839.403 265.3 C 840.268 265.291 841.132 265.283 842.023 265.274 C 846.219 265.258 850.125 265.287 854.216 266.362 C 855.617 279.418 851.531 291.87 848.216 304.362 C 847.941 305.414 847.666 306.465 847.382 307.549 C 847.117 308.547 846.852 309.545 846.579 310.573 C 846.341 311.471 846.103 312.369 845.858 313.294 C 845.216 315.362 845.216 315.362 844.216 316.362 C 841.883 316.403 839.549 316.405 837.216 316.362 C 837.337 317.069 837.458 317.775 837.583 318.503 C 839.256 328.747 840.409 339.015 841.216 349.362 C 841.314 350.517 841.314 350.517 841.415 351.695 C 842.483 365.562 839.102 374.796 830.091 385.675 C 827.286 388.823 825.418 389.861 821.216 390.362 C 817.816 383.94 815.264 377.395 812.841 370.55 C 812.447 369.443 812.054 368.337 811.648 367.197 C 805.499 349.785 800.519 332.322 796.216 314.362 C 787.993 313.002 768.351 110.358 760.045 109.755 C 747.876 108.847 742.145 198.113 733.308 252.998 C 887.737 264.291 822.097 312.904 723.216 305.362 C 722.991 306.492 722.767 307.621 722.535 308.784 C 718.339 329.75 713.06 350.538 707.032 371.05 C 706.722 372.104 706.412 373.159 706.092 374.245 C 703.832 381.768 701.122 389.066 698.212 396.362 C 693.442 396.56 693.442 396.56 691.372 394.78 C 687.042 388.95 683.912 383.097 681.212 376.362 C 680.892 375.68 680.572 374.999 680.242 374.296 C 674.412 360.449 678.872 341.536 680.722 327.234 C 681.162 323.879 681.582 320.522 681.992 317.165 C 682.262 315.024 682.532 312.882 682.802 310.741 C 682.932 309.741 683.062 308.742 683.192 307.711 C 683.312 306.789 683.432 305.866 683.552 304.915 C 683.652 304.106 683.762 303.296 683.872 302.462 C 684.212 300.362 684.212 300.362 685.212 297.362 C 684.612 297.249 684.012 297.136 683.392 297.019 C 679.872 295.959 677.712 293.249 675.212 290.675 C 674.692 290.157 674.172 289.64 673.642 289.107 C 665.212 280.568 665.212 280.568 665.212 275.362 C 672.862 273.386 680.352 272.813 688.212 272.362 C 688.262 271.546 688.312 270.729 688.352 269.887 C 688.952 260.404 690.102 251.058 691.442 241.655 C 691.662 240.06 691.882 238.464 692.112 236.868 C 692.702 232.634 693.302 228.401 693.902 224.168 C 694.282 221.536 694.652 218.904 695.032 216.272 C 712.795 91.082 712.795 91.082 735.419 73.89 C 738.949 71.277 742.561 68.796 746.216 66.362 C 747.162 65.732 748.108 65.102 749.083 64.452 C 761.217 56.907 777.83 48.858 792.327 49.304 Z"></path>
    <path style="stroke-width: 1; fill: #8231d3;" d="M 953.883 58.247 C 955.441 58.247 956.999 58.246 958.557 58.245 C 963.008 58.243 967.459 58.246 971.91 58.26 C 973.924 58.266 975.937 58.268 977.95 58.27 C 979.745 58.279 979.745 58.279 981.575 58.289 C 983.145 58.295 983.145 58.295 984.746 58.301 C 987.216 58.434 987.216 58.434 989.216 59.434 C 989.494 66.81 988.474 73.474 986.966 80.684 C 986.741 81.785 986.515 82.886 986.283 84.02 C 981.951 104.7 981.951 104.7 979.216 107.434 C 976.259 107.523 973.325 107.55 970.368 107.532 C 969.039 107.53 969.039 107.53 967.682 107.528 C 964.839 107.522 961.996 107.51 959.153 107.497 C 957.231 107.492 955.308 107.487 953.386 107.483 C 948.662 107.472 943.939 107.455 939.216 107.434 C 939.22 108.592 939.225 109.75 939.229 110.943 C 939.443 168.474 939.46 225.94 937.216 283.434 C 937.17 284.629 937.124 285.823 937.077 287.054 C 936.653 298.107 936.207 309.159 935.681 320.208 C 935.632 321.276 935.632 321.276 935.583 322.365 C 935.331 327.415 934.821 332.415 934.216 337.434 C 935.346 337.429 936.476 337.424 937.641 337.419 C 941.838 337.4 946.035 337.389 950.231 337.379 C 952.047 337.374 953.863 337.368 955.679 337.359 C 958.29 337.347 960.901 337.341 963.513 337.337 C 964.323 337.332 965.134 337.326 965.969 337.321 C 969.558 337.321 972.763 337.464 976.216 338.434 C 976.788 346.105 975.911 353.168 974.466 360.684 C 974.309 361.504 974.152 362.323 973.99 363.168 C 972.351 371.325 970.271 379.374 968.216 387.434 C 935.985 387.79 905.829 386.763 875.216 375.434 C 874.212 375.149 873.207 374.865 872.173 374.571 C 863.79 371.761 860.872 365.96 857.091 358.442 C 856.457 357.11 855.832 355.774 855.216 354.434 C 854.916 353.786 854.617 353.138 854.308 352.47 C 852.734 348.945 851.863 346.318 852.216 342.434 C 855.98 341.322 859.8 341.021 863.692 340.68 C 864.418 340.615 865.143 340.55 865.89 340.483 C 867.425 340.346 868.96 340.211 870.495 340.077 C 872.812 339.874 875.129 339.664 877.446 339.452 C 878.945 339.319 880.444 339.187 881.942 339.055 C 882.622 338.993 883.302 338.93 884.002 338.866 C 889.412 338.405 894.788 338.372 900.216 338.434 C 899.601 329.331 898.983 320.227 898.364 311.124 C 898.076 306.894 897.789 302.664 897.503 298.434 C 896.396 282.049 895.278 265.672 893.866 249.31 C 893.129 240.672 892.628 232.031 892.216 223.372 C 892.135 221.72 892.055 220.069 891.974 218.417 C 891.804 214.913 891.638 211.408 891.475 207.904 C 891.301 204.204 891.12 200.504 890.934 196.805 C 889.822 174.723 889.021 152.672 888.966 130.559 C 888.961 129.601 888.955 128.643 888.95 127.656 C 888.938 124.939 888.942 122.222 888.95 119.505 C 888.944 118.322 888.944 118.322 888.938 117.115 C 888.983 111.674 889.85 106.697 891.216 101.434 C 890.185 101.352 889.153 101.269 888.091 101.184 C 882.878 100.533 877.961 99.04 872.946 97.509 C 869.247 96.386 869.247 96.386 865.517 95.704 C 857.002 93.89 852.983 91.178 848.192 83.884 C 839.216 68.219 839.216 68.219 839.216 63.434 C 851.541 57.272 872.615 59.756 886.091 59.309 C 887.306 59.267 888.521 59.225 889.773 59.182 C 911.142 58.459 932.503 58.246 953.883 58.247 Z"></path>
  </g>
</svg>