<svg xmlns="http://www.w3.org/2000/svg" viewBox="0 0 600 600">
  <g>
    <path d="M 178.585 82.183 C 179.573 82.183 179.573 82.183 180.581 82.193 C 190.62 82.263 199.296 82.953 208.71 86.623 C 210.537 87.253 210.537 87.253 212.402 87.903 C 226.442 92.958 238.523 100.801 249.71 110.62 C 250.512 111.301 251.314 111.981 252.14 112.683 C 257.14 116.993 261.471 121.573 265.71 126.62 C 266.649 127.71 267.589 128.798 268.53 129.886 C 275.537 137.988 282.401 146.158 288.796 154.757 C 289.339 155.486 289.881 156.215 290.441 156.966 C 291.523 158.425 292.601 159.887 293.675 161.352 C 294.416 162.353 294.416 162.353 295.171 163.374 C 295.833 164.276 295.833 164.276 296.508 165.197 C 297.673 166.766 297.673 166.766 299.71 167.62 C 299.938 166.928 300.166 166.236 300.402 165.522 C 301.999 161.979 304.213 159.173 306.648 156.183 C 307.647 154.937 308.645 153.691 309.644 152.444 C 310.154 151.811 310.664 151.177 311.19 150.524 C 312.645 148.702 314.075 146.863 315.495 145.015 C 321.523 137.182 327.87 129.758 334.71 122.62 C 335.277 122.02 335.845 121.42 336.429 120.802 C 351.894 104.514 369 92.239 390.71 85.623 C 391.596 85.323 392.481 85.023 393.394 84.723 C 417.527 77.763 446.032 83.093 467.862 94.761 C 475.776 99.237 482.966 104.517 489.71 110.62 C 491.156 111.925 491.156 111.925 492.632 113.257 C 511.817 131.182 527.256 157.968 528.71 184.62 C 528.05 184.62 527.39 184.62 526.71 184.62 C 526.416 184.012 526.122 183.403 525.819 182.776 C 521.135 173.623 515.054 165.676 508.71 157.62 C 508.068 156.8 507.426 155.98 506.765 155.136 C 502.101 149.503 496.488 145.064 490.71 140.62 C 489.521 139.69 489.521 139.69 488.308 138.741 C 468.734 124.183 444.419 118.019 420.301 120.909 C 404.978 123.402 390.664 129.744 378.71 139.62 C 377.933 140.247 377.155 140.873 376.355 141.519 C 371.284 145.795 367.124 150.533 363.011 155.726 C 360.723 158.604 358.351 161.39 355.96 164.183 C 350.038 171.28 344.679 178.758 339.35 186.307 C 337.716 188.612 336.06 190.902 334.402 193.19 C 333.378 194.625 332.356 196.06 331.335 197.495 C 330.852 198.155 330.37 198.814 329.872 199.494 C 327.392 202.737 327.392 202.737 326.955 206.609 C 327.739 208.696 328.644 210.251 329.941 212.062 C 330.64 213.046 330.64 213.046 331.353 214.051 C 332.118 215.106 332.118 215.106 332.898 216.183 C 333.427 216.922 333.957 217.662 334.502 218.423 C 336.23 220.828 337.969 223.225 339.71 225.62 C 340.302 226.437 340.893 227.254 341.503 228.095 C 348.322 237.493 355.225 246.741 362.71 255.62 C 363.592 256.709 364.472 257.799 365.351 258.89 C 377.338 273.636 391.418 283.045 409.71 288.62 C 410.912 288.989 412.113 289.357 413.351 289.737 C 438.011 295.695 463.954 288.228 484.984 275.417 C 502.927 263.592 517.235 246.851 526.71 227.62 C 527.37 227.62 528.03 227.62 528.71 227.62 C 525.628 258.552 508.436 285.369 485.429 305.464 C 461.925 324.105 432.995 332.713 403.165 329.332 C 369.439 324.178 342.331 300.406 321.71 274.62 C 321.026 273.803 320.341 272.986 319.636 272.144 C 312.227 263.297 305.498 253.946 298.71 244.62 C 294.7 248.42 291.458 252.474 288.21 256.933 C 278.42 270.152 268.061 282.713 256.71 294.62 C 256.1 295.283 255.491 295.945 254.862 296.628 C 241.304 310.953 223.378 320.758 204.71 326.62 C 203.641 326.96 202.573 327.301 201.472 327.651 C 177.354 334.012 151.34 329.304 129.71 317.62 C 128.654 317.063 127.599 316.506 126.511 315.933 C 98.759 300.582 79.644 273.908 70.902 243.862 C 70.504 242.448 70.107 241.034 69.71 239.62 C 69.513 238.958 69.316 238.297 69.112 237.615 C 68.085 234.158 67.491 231.238 67.71 227.62 C 68.37 227.62 69.03 227.62 69.71 227.62 C 70.402 228.91 70.402 228.91 71.109 230.226 C 85.827 257.129 108.158 278.661 137.835 288.058 C 145.918 290.399 153.461 290.803 161.835 290.808 C 162.9 290.82 163.965 290.832 165.062 290.845 C 187.851 290.886 207.396 282.505 223.71 266.62 C 224.3 266.08 224.891 265.54 225.499 264.983 C 231.103 259.712 235.654 253.502 240.327 247.418 C 241.604 245.758 242.891 244.105 244.183 242.456 C 250.753 234.016 257.056 225.386 263.236 216.656 C 264.207 215.315 265.209 213.995 266.243 212.701 C 268.925 209.307 268.925 209.307 269.866 205.187 C 268.114 201.298 265.724 197.99 263.21 194.558 C 262.666 193.802 262.122 193.047 261.562 192.269 C 259.955 190.045 258.335 187.831 256.71 185.62 C 256.291 185.047 255.872 184.475 255.44 183.885 C 252.905 180.431 250.32 177.018 247.71 173.62 C 247.294 173.078 246.879 172.536 246.45 171.978 C 228.844 149.096 212.196 131.003 183.71 122.62 C 183.067 122.425 182.423 122.23 181.76 122.029 C 176.572 120.577 171.645 120.271 166.273 120.308 C 165.404 120.313 164.535 120.317 163.64 120.323 C 135.411 120.824 110.35 133.535 90.71 153.62 C 82.95 162.371 73.442 173.425 69.71 184.62 C 69.05 184.62 68.39 184.62 67.71 184.62 C 68.793 164.773 78.167 145.436 89.71 129.62 C 90.227 128.88 90.744 128.14 91.277 127.378 C 111.507 99.694 144.202 81.903 178.585 82.183 Z" fill="#767DF3" style="stroke-width: 1;"></path>
    <path d="M 207.273 152.683 C 216.095 160.18 223.466 169.808 227.71 180.62 C 228.101 181.608 228.491 182.595 228.894 183.612 C 235.04 201.689 232.354 220.717 224.602 237.816 C 216.505 254.2 201.629 265.401 184.851 271.577 C 183.814 271.921 182.778 272.266 181.71 272.62 C 180.647 272.989 179.583 273.357 178.487 273.737 C 173.613 274.877 169.012 274.962 164.023 274.933 C 163.045 274.928 162.066 274.924 161.059 274.92 C 153.907 274.808 147.479 274.042 140.71 271.62 C 139.892 271.365 139.073 271.11 138.23 270.847 C 121.546 265.064 108.785 251.941 100.71 236.62 C 92.824 219.706 91.183 201.476 96.969 183.636 C 104.199 163.961 118.123 150.149 136.952 141.402 C 160.128 131.089 187.874 137.862 207.273 152.683 Z" fill="#4873E9" style="stroke-width: 1;"></path>
    <path d="M 478.023 152.308 C 490.019 162.553 499.841 178.823 501.71 194.62 C 501.948 198.475 502.044 202.321 502.085 206.183 C 502.099 207.14 502.113 208.098 502.128 209.085 C 502.061 219.035 499.566 227.868 495.023 236.683 C 494.674 237.365 494.326 238.046 493.968 238.749 C 490.871 244.633 487.275 249.766 482.71 254.62 C 482.069 255.314 481.429 256.007 480.769 256.722 C 467.477 269.787 448.479 274.925 430.328 274.862 C 412.641 274.559 396.323 266.932 383.71 254.62 C 368.948 239.272 364.04 220.599 364.362 199.855 C 364.831 189.144 368.664 178.453 374.71 169.62 C 375.397 168.604 376.084 167.589 376.792 166.542 C 385.517 154.186 396.466 145.975 410.71 140.62 C 412.052 140.112 412.052 140.112 413.421 139.593 C 435.51 132.726 459.833 138.785 478.023 152.308 Z" fill="#9F3AE0" style="stroke-width: 1;"></path>
    <path d="M 335.71 223.62 C 339.101 225.034 340.73 226.606 342.847 229.585 C 343.706 230.777 343.706 230.777 344.582 231.993 C 345.181 232.839 345.78 233.686 346.398 234.558 C 347.656 236.3 348.916 238.041 350.179 239.78 C 350.787 240.62 351.396 241.459 352.023 242.324 C 355.397 246.916 359.038 251.264 362.71 255.62 C 363.592 256.709 364.472 257.799 365.351 258.89 C 377.338 273.636 391.418 283.045 409.71 288.62 C 410.911 288.989 412.113 289.357 413.351 289.737 C 438.011 295.695 463.954 288.228 484.984 275.417 C 502.927 263.592 517.235 246.851 526.71 227.62 C 527.37 227.62 528.03 227.62 528.71 227.62 C 525.628 258.552 508.436 285.369 485.429 305.464 C 461.925 324.105 432.995 332.713 403.165 329.332 C 369.453 324.18 342.309 300.413 321.71 274.62 C 320.066 272.619 318.42 270.619 316.773 268.62 C 310.657 261.199 310.657 261.199 310.886 258.718 C 311.896 256.146 313.233 254.269 314.898 252.058 C 315.605 251.108 316.313 250.158 317.042 249.179 C 317.453 248.632 317.864 248.085 318.287 247.522 C 320.601 244.429 322.889 241.317 325.18 238.206 C 326.439 236.497 327.699 234.79 328.961 233.083 C 329.546 232.291 330.131 231.499 330.734 230.683 C 331.259 229.972 331.784 229.262 332.325 228.53 C 333.492 226.921 334.607 225.274 335.71 223.62 Z" fill="#B555F1" style="stroke-width: 1;"></path>
    <path d="M 178.585 82.183 C 179.573 82.183 179.573 82.183 180.581 82.193 C 190.62 82.263 199.296 82.953 208.71 86.623 C 210.537 87.253 210.537 87.253 212.402 87.903 C 226.442 92.958 238.523 100.801 249.71 110.62 C 250.512 111.301 251.314 111.981 252.14 112.683 C 257.14 116.993 261.471 121.573 265.71 126.62 C 266.649 127.71 267.589 128.798 268.53 129.886 C 271.125 132.884 273.697 135.9 276.262 138.923 C 277.593 140.483 278.944 142.027 280.296 143.569 C 281.398 144.863 281.398 144.863 282.523 146.183 C 283.168 146.926 283.814 147.67 284.48 148.437 C 285.71 150.62 285.71 150.62 285.465 152.993 C 284.654 155.817 283.631 157.507 281.866 159.843 C 281.284 160.624 280.701 161.404 280.1 162.209 C 279.476 163.025 278.853 163.842 278.21 164.683 C 276.931 166.378 275.653 168.073 274.374 169.769 C 273.435 171.006 273.435 171.006 272.477 172.268 C 270.924 174.335 269.412 176.422 267.921 178.534 C 267.519 179.096 267.118 179.658 266.704 180.237 C 265.656 181.708 264.616 183.185 263.577 184.663 C 262.961 185.309 262.345 185.955 261.71 186.62 C 260.39 186.62 259.07 186.62 257.71 186.62 C 255.992 184.776 254.594 183.037 253.148 180.995 C 252.259 179.793 251.37 178.591 250.48 177.39 C 249.794 176.453 249.794 176.453 249.095 175.498 C 231.194 151.235 213.47 131.378 183.71 122.62 C 183.067 122.425 182.423 122.23 181.76 122.029 C 176.572 120.577 171.645 120.271 166.273 120.308 C 165.404 120.313 164.535 120.317 163.64 120.323 C 135.411 120.824 110.35 133.535 90.71 153.62 C 82.95 162.371 73.442 173.425 69.71 184.62 C 69.05 184.62 68.39 184.62 67.71 184.62 C 68.793 164.773 78.167 145.436 89.71 129.62 C 90.227 128.88 90.744 128.14 91.277 127.378 C 111.507 99.694 144.202 81.903 178.585 82.183 Z" fill="#44AFF2" style="stroke-width: 1;"></path>
    <path d="M 160.928 136.487 C 161.81 136.456 163.118 136.509 164.026 136.477 C 166.389 136.477 166.315 136.633 168.616 137.172 C 170.518 139.516 172.612 139.964 173.71 142.62 C 174.468 143.361 174.468 143.361 175.241 144.116 C 181.896 150.93 184.472 164.438 185.71 173.62 C 187.688 188.294 175.017 225.216 148.516 230.516 C 148.553 230.641 121.162 235.125 107.991 229.448 C 105.501 228.262 103.106 226.986 100.71 225.62 C 99.72 225.063 98.73 224.506 97.71 223.933 C 92.66 218.094 93.262 208.724 93.405 201.39 C 94.908 182.804 103.622 165.315 117.71 153.058 C 130.989 142.657 144.043 136.872 160.928 136.487 Z" fill="#3CD8F5" style="stroke-width: 1;"></path>
    <path d="M 446.194 138.073 C 457.412 139.818 467.592 145.003 476.71 151.62 C 477.741 152.342 478.773 153.064 479.835 153.808 C 491.6 164.251 500.903 181.537 501.87 197.207 C 501.992 200.2 502.053 203.187 502.085 206.183 C 502.099 207.14 502.113 208.098 502.128 209.085 C 502.059 219.196 499.467 228 494.835 236.933 C 494.509 237.596 494.183 238.259 493.847 238.942 C 491.606 243.358 489.002 246.921 485.71 250.62 C 483.71 249.62 483.71 249.62 482.999 247.687 C 482.78 246.86 482.561 246.034 482.335 245.183 C 481.325 241.603 480.193 238.182 478.773 234.745 C 470.987 215.723 466.357 195.581 461.71 175.62 C 460.865 175.459 460.02 175.299 459.15 175.133 C 428.107 169.211 428.107 169.211 412.71 165.62 C 416.941 160.621 421.292 155.771 425.773 150.995 C 426.371 150.353 426.97 149.711 427.587 149.05 C 428.754 147.803 429.925 146.56 431.102 145.324 C 432.533 143.808 433.925 142.257 435.312 140.702 C 438.944 137.549 441.547 137.867 446.194 138.073 Z" fill="#E780F0" style="stroke-width: 1;"></path>
    <path d="M 421.01 193.053 C 422.288 193.079 423.565 193.105 424.882 193.132 C 425.564 193.139 426.247 193.146 426.95 193.153 C 429.121 193.181 431.29 193.244 433.46 193.308 C 434.935 193.333 436.411 193.356 437.886 193.376 C 441.496 193.427 445.1 193.525 448.71 193.62 C 448.71 202.53 448.71 211.44 448.71 220.62 C 443.366 220.921 438.052 221.179 432.707 221.334 C 430.896 221.399 429.086 221.487 427.278 221.601 C 412.565 222.5 412.565 222.5 407.74 219.323 C 404.795 216.675 402.453 213.762 400.136 210.563 C 397.991 207.481 397.991 207.481 395.003 206.536 C 392.259 206.216 392.259 206.216 388.71 206.62 C 390.593 212.603 393.236 217.084 396.925 222.144 C 399.368 225.533 401.532 229.056 403.71 232.62 C 400.095 231.126 398.066 229.059 395.523 226.12 C 394.828 225.326 394.133 224.532 393.417 223.714 C 391.71 221.62 391.71 221.62 390.71 219.62 C 382.79 219.29 374.87 218.96 366.71 218.62 C 366.38 219.61 366.05 220.6 365.71 221.62 C 364.691 215.771 364.592 210.111 364.648 204.183 C 364.652 203.26 364.657 202.338 364.661 201.388 C 364.673 199.132 364.689 196.876 364.71 194.62 C 365.04 195.61 365.37 196.6 365.71 197.62 C 366.743 197.609 367.775 197.597 368.839 197.585 C 377.97 197.515 387.085 197.657 396.21 197.995 C 397.219 198.026 398.228 198.057 399.267 198.089 C 400.207 198.127 401.148 198.166 402.116 198.206 C 402.955 198.237 403.793 198.269 404.657 198.301 C 406.71 198.62 406.71 198.62 408.71 200.62 C 408.71 201.61 408.71 202.6 408.71 203.62 C 409.7 203.62 410.69 203.62 411.71 203.62 C 412.205 205.6 412.205 205.6 412.71 207.62 C 413.842 207.597 414.974 207.574 416.14 207.55 C 417.622 207.531 419.103 207.513 420.585 207.495 C 421.331 207.478 422.078 207.462 422.847 207.444 C 424.802 207.427 426.758 207.517 428.71 207.62 C 429.7 208.61 429.7 208.61 430.71 209.62 C 433.294 209.787 433.294 209.787 435.71 209.62 C 436.712 206.037 436.712 206.037 435.71 202.62 C 432.419 202.999 432.419 202.999 429.71 204.62 C 427.218 204.747 424.765 204.805 422.273 204.808 C 421.231 204.826 421.231 204.826 420.169 204.845 C 418.348 204.85 416.527 204.742 414.71 204.62 C 414.05 203.96 413.39 203.3 412.71 202.62 C 413.06 197.541 416.068 193.903 421.01 193.053 Z" fill="#9E39E1" style="stroke-width: 1;"></path>
    <path d="M 366.71 221.62 C 384.993 219.38 384.993 219.38 390.963 222.978 C 394.699 226.262 397.678 230.079 400.412 234.221 C 402.057 235.994 403.402 236.059 405.71 236.62 C 407.049 238.737 408.166 240.763 409.273 242.995 C 412.654 249.365 416.668 253.98 421.952 258.94 C 425.631 262.515 428.744 266.387 431.933 270.405 C 433.67 272.653 433.67 272.653 435.71 274.62 C 417.032 275.529 400.215 269.359 386.171 257.022 C 375.738 246.838 369.554 235.899 366.71 221.62 Z" fill="#7526E9" style="stroke-width: 1;"></path>
    <path d="M 462.71 177.62 C 468.027 178.107 471.935 180.964 476.335 183.745 C 477.532 184.49 477.532 184.49 478.754 185.249 C 481.078 186.697 483.395 188.156 485.71 189.62 C 486.314 190.001 486.918 190.383 487.54 190.775 C 489.848 192.236 492.152 193.703 494.448 195.183 C 496.719 196.715 496.719 196.715 499.472 197.776 C 501.71 199.62 501.71 199.62 502.304 203.464 C 502.304 205.016 502.271 206.569 502.21 208.12 C 502.189 208.935 502.169 209.75 502.148 210.59 C 501.587 225.295 495.503 239.616 485.71 250.62 C 483.71 249.62 483.71 249.62 482.999 247.687 C 482.78 246.86 482.561 246.034 482.335 245.183 C 481.325 241.603 480.193 238.182 478.773 234.745 C 472.096 218.433 462.71 195.471 462.71 177.62 Z" fill="#D86BEE" style="stroke-width: 1;"></path>
    <path d="M 67.71 227.62 C 68.37 227.62 69.03 227.62 69.71 227.62 C 70.402 228.91 70.402 228.91 71.109 230.226 C 85.827 257.129 108.158 278.661 137.835 288.058 C 145.918 290.399 153.461 290.803 161.835 290.808 C 163.432 290.826 163.432 290.826 165.062 290.845 C 175.193 290.863 184.796 289.802 194.21 285.933 C 194.832 285.678 195.453 285.423 196.094 285.161 C 201.467 282.885 206.384 280.056 211.319 276.94 C 213.71 275.62 213.71 275.62 216.71 275.62 C 215.596 276.486 215.596 276.486 214.46 277.37 C 211.78 279.467 211.78 279.467 209.909 281.519 C 199.094 291.854 183.132 298.023 168.71 300.62 C 167.452 300.847 166.194 301.074 164.898 301.308 C 163.504 301.438 162.107 301.537 160.71 301.62 C 159.608 301.696 158.506 301.772 157.37 301.851 C 133.614 302.729 115.159 293.663 97.78 277.976 C 88.581 269.358 82.122 259.415 75.71 248.62 C 76.04 250.93 76.37 253.24 76.71 255.62 C 76.05 255.62 75.39 255.62 74.71 255.62 C 73.532 251.895 72.37 248.164 71.21 244.433 C 70.876 243.378 70.542 242.322 70.198 241.235 C 69.883 240.214 69.567 239.192 69.241 238.14 C 68.801 236.734 68.801 236.734 68.353 235.299 C 67.713 232.633 67.589 230.35 67.71 227.62 Z" fill="#2099BB" style="stroke-width: 1;"></path>
    <path d="M 477.71 118.62 C 478.238 119.254 502.902 135.139 506.714 142.567 C 506.604 143.014 505.16 142.048 506.71 142.62 C 508.291 144.655 509.732 146.664 511.148 148.808 C 511.53 149.373 511.912 149.938 512.306 150.521 C 513.073 151.658 513.836 152.799 514.593 153.943 C 515.662 155.548 516.758 157.135 517.855 158.722 C 519.559 161.384 520.813 163.871 521.96 166.808 C 522.295 167.647 522.63 168.486 522.976 169.351 C 523.71 171.62 523.71 171.62 523.71 174.62 C 524.37 174.62 525.03 174.62 525.71 174.62 C 526.04 173.63 526.37 172.64 526.71 171.62 C 527.049 173.036 527.381 174.453 527.71 175.87 C 527.896 176.659 528.081 177.448 528.273 178.261 C 528.71 180.62 528.71 180.62 528.71 184.62 C 528.05 184.62 527.39 184.62 526.71 184.62 C 526.416 184.012 526.122 183.403 525.819 182.776 C 521.135 173.623 515.054 165.676 508.71 157.62 C 508.068 156.8 507.426 155.98 506.765 155.136 C 502.101 149.503 496.488 145.064 490.71 140.62 C 489.917 140 489.125 139.38 488.308 138.741 C 468.734 124.183 444.419 118.019 420.301 120.909 C 406.586 123.14 393.136 128.765 381.71 136.62 C 381.71 135.63 381.71 134.64 381.71 133.62 C 383.03 133.29 384.35 132.96 385.71 132.62 C 385.71 131.96 385.71 131.3 385.71 130.62 C 387.764 129.101 389.799 127.723 391.96 126.37 C 392.597 125.969 393.234 125.568 393.89 125.155 C 420.87 108.396 448.552 106.366 477.71 118.62 Z" fill="#922FB8" style="stroke-width: 1;"></path>
    <path d="M 185.71 116.62 C 186.385 116.915 187.059 117.21 187.754 117.513 C 208.822 126.844 208.822 126.844 212.71 134.62 C 209.179 133.281 205.956 131.683 202.648 129.87 C 180.971 119.098 158.329 117.622 135.222 124.687 C 106.468 135.121 85.902 155.723 70.71 181.62 C 70.38 182.61 70.05 183.6 69.71 184.62 C 69.05 184.62 68.39 184.62 67.71 184.62 C 68.04 181.65 68.37 178.68 68.71 175.62 C 69.37 175.95 70.03 176.28 70.71 176.62 C 71.027 175.784 71.344 174.947 71.671 174.085 C 81.098 150.568 98.141 128.939 121.37 118.042 C 141.534 109.458 165.332 107.492 185.71 116.62 Z" fill="#1A98B9" style="stroke-width: 1;"></path>
    <path d="M 526.71 227.62 C 527.37 227.62 528.03 227.62 528.71 227.62 C 528.38 230.26 528.05 232.9 527.71 235.62 C 527.05 235.62 526.39 235.62 525.71 235.62 C 525.549 236.145 525.388 236.669 525.222 237.21 C 517.241 259.941 497.982 281.767 476.835 292.87 C 458.211 301.77 435.384 304.217 415.644 297.365 C 406.04 293.665 392.538 288.362 386.71 279.62 C 390.052 280.623 392.954 281.753 396.023 283.433 C 415.295 292.979 439.195 293.81 459.71 287.62 C 489.238 277.152 512.899 255.65 526.71 227.62 Z" fill="#9131B8" style="stroke-width: 1;"></path>
    <path d="M 389.601 155.151 C 397.169 158.259 404.435 161.889 411.71 165.62 C 408.39 176.322 401.146 188.33 391.71 194.62 C 388.983 194.847 388.983 194.847 385.73 194.815 C 383.985 194.806 383.985 194.806 382.204 194.796 C 380.989 194.779 379.774 194.762 378.523 194.745 C 377.296 194.736 376.069 194.727 374.806 194.718 C 371.774 194.694 368.742 194.661 365.71 194.62 C 367.218 179.688 375.072 166.118 385.71 155.62 C 387.71 154.62 387.71 154.62 389.601 155.151 Z" fill="#742AD2" style="stroke-width: 1;"></path>
    <path d="M 473.71 219.62 C 474.04 219.62 474.37 219.62 474.71 219.62 C 475.056 220.927 475.056 220.927 475.409 222.261 C 477.36 229.384 479.574 236.127 482.562 242.901 C 483.772 245.766 484.761 248.66 485.71 251.62 C 476.148 262.169 462.156 271.59 447.71 273.62 C 445.94 273.685 444.168 273.706 442.398 273.683 C 441.515 273.674 440.632 273.665 439.722 273.655 C 439.058 273.644 438.394 273.632 437.71 273.62 C 439.402 268.421 442.526 264.213 445.585 259.745 C 449.929 253.407 449.929 253.407 453.843 246.8 C 455.582 243.839 457.243 241.957 459.71 239.62 C 461.035 237.917 462.326 236.185 463.585 234.433 C 464.62 232.994 464.62 232.994 465.675 231.526 C 468.052 228.132 470.341 224.688 472.581 221.202 C 472.954 220.68 473.326 220.158 473.71 219.62 Z" fill="#BE50F2" style="stroke-width: 1;"></path>
    <path d="M 324.71 205.62 C 328.217 208.87 330.804 212.433 333.46 216.37 C 333.871 216.972 334.283 217.574 334.706 218.194 C 335.711 219.667 336.711 221.143 337.71 222.62 C 334.754 226.568 331.794 230.513 328.816 234.444 C 322.571 242.702 316.521 251.051 310.71 259.62 C 307.391 256.483 304.655 253.04 301.96 249.37 C 301.549 248.816 301.138 248.262 300.714 247.69 C 299.71 246.336 298.709 244.978 297.71 243.62 C 300.232 239.028 302.88 234.923 306.148 230.808 C 312.592 222.599 318.639 214.106 324.71 205.62 Z" fill="#5F34B7" style="stroke-width: 1;"></path>
    <path d="M 424.71 176.62 C 427.585 176.495 427.585 176.495 430.71 176.62 C 431.7 177.61 431.7 177.61 432.71 178.62 C 432.155 183.176 432.155 183.176 430.71 184.62 C 428.21 184.745 428.21 184.745 425.71 184.62 C 425.215 184.125 425.215 184.125 424.71 183.62 C 414.015 182.022 414.015 182.022 403.931 184.704 C 400.853 187.547 398.69 190.958 396.71 194.62 C 399.104 195.12 401.491 195.57 403.898 195.995 C 404.571 196.141 405.245 196.286 405.939 196.437 C 408.223 196.885 408.223 196.885 411.71 196.62 C 412.44 195.639 413.171 194.658 413.923 193.647 C 416.216 190.702 416.572 190.644 420.582 189.939 C 422.08 189.94 423.577 189.973 425.073 190.034 C 425.865 190.043 426.657 190.051 427.473 190.06 C 429.991 190.093 432.506 190.169 435.023 190.245 C 436.734 190.275 438.446 190.303 440.157 190.327 C 444.344 190.388 448.523 190.505 452.71 190.62 C 452.71 201.51 452.71 212.4 452.71 223.62 C 446.621 223.874 440.551 224.092 434.461 224.224 C 432.394 224.279 430.328 224.354 428.263 224.45 C 410.154 225.268 410.154 225.268 405.1 221.193 C 401.983 218.08 399.677 214.553 397.71 210.62 C 395.584 210.154 395.584 210.154 393.148 209.995 C 392.321 209.92 391.495 209.846 390.644 209.769 C 390.006 209.72 389.368 209.671 388.71 209.62 C 388.71 208.63 388.71 207.64 388.71 206.62 C 392.439 205.812 394.13 205.481 397.71 206.62 C 398.983 208.13 400.247 209.651 401.407 211.249 C 404.966 216.044 408.269 219.726 414.336 220.783 C 419.549 221.272 424.735 221.119 429.96 220.933 C 431.784 220.916 433.608 220.904 435.433 220.899 C 439.866 220.885 444.272 220.751 448.71 220.62 C 448.71 211.71 448.71 202.8 448.71 193.62 C 444.366 193.648 440.028 193.691 435.685 193.773 C 434.209 193.796 432.733 193.81 431.256 193.816 C 429.131 193.825 427.007 193.866 424.882 193.913 C 422.965 193.937 422.965 193.937 421.01 193.961 C 417.55 194.341 417.55 194.341 415.246 197.02 C 413.459 199.453 413.459 199.453 413.96 201.933 C 414.208 202.49 414.455 203.046 414.71 203.62 C 417.169 203.674 419.626 203.714 422.085 203.745 C 422.784 203.762 423.482 203.779 424.202 203.796 C 426.039 203.814 427.876 203.723 429.71 203.62 C 430.37 202.96 431.03 202.3 431.71 201.62 C 434.335 201.995 434.335 201.995 436.71 202.62 C 437.335 205.495 437.335 205.495 437.71 208.62 C 435.71 210.62 435.71 210.62 433.21 210.87 C 430.71 210.62 430.71 210.62 428.71 208.62 C 425.976 208.314 423.327 208.109 420.585 207.995 C 419.831 207.956 419.077 207.918 418.3 207.878 C 416.437 207.784 414.574 207.701 412.71 207.62 C 412.215 205.64 412.215 205.64 411.71 203.62 C 410.72 203.62 409.73 203.62 408.71 203.62 C 408.05 202.3 407.39 200.98 406.71 199.62 C 393.18 198.96 379.65 198.3 365.71 197.62 C 365.71 196.63 365.71 195.64 365.71 194.62 C 366.472 194.611 367.233 194.601 368.017 194.592 C 371.478 194.538 374.938 194.454 378.398 194.37 C 379.596 194.356 380.794 194.342 382.028 194.327 C 383.185 194.295 384.342 194.263 385.534 194.23 C 386.597 194.209 387.66 194.188 388.756 194.166 C 394.252 193.151 397.244 189.237 400.46 184.933 C 403.697 180.633 403.697 180.633 404.71 179.62 C 406.126 179.534 407.546 179.513 408.964 179.522 C 410.245 179.527 410.245 179.527 411.552 179.532 C 412.45 179.541 413.348 179.549 414.273 179.558 C 415.174 179.562 416.076 179.567 417.005 179.571 C 419.24 179.583 421.475 179.6 423.71 179.62 C 424.04 178.63 424.37 177.64 424.71 176.62 Z" fill="#E58CED" style="stroke-width: 1;"></path>
    <path d="M 285.71 151.62 C 286.272 152.325 286.834 153.03 287.413 153.757 C 289.745 156.663 292.099 159.55 294.46 162.433 C 295.259 163.408 296.059 164.384 296.882 165.39 C 297.485 166.126 298.089 166.862 298.71 167.62 C 278.32 199.01 278.32 199.01 270.71 206.62 C 266.681 200.304 262.67 193.979 258.71 187.62 C 259.411 186.96 260.113 186.3 260.835 185.62 C 262.905 183.548 264.696 181.397 266.437 179.042 C 266.959 178.338 267.482 177.633 268.02 176.907 C 268.578 176.152 269.136 175.398 269.71 174.62 C 270.903 173.021 272.095 171.422 273.288 169.823 C 274.513 168.172 275.736 166.521 276.96 164.87 C 277.896 163.615 277.896 163.615 278.851 162.335 C 279.748 161.123 279.748 161.123 280.663 159.886 C 281.47 158.8 281.47 158.8 282.293 157.691 C 283.637 155.727 284.704 153.773 285.71 151.62 Z" fill="#334AAA" style="stroke-width: 1;"></path>
    <path d="M 441.71 138.62 C 442.195 139.552 442.679 140.484 443.179 141.444 C 448.303 151.218 453.679 160.764 459.944 169.866 C 461.71 172.62 461.71 172.62 461.71 174.62 C 455.819 174.872 450.578 173.932 444.839 172.651 C 443.917 172.452 442.994 172.252 442.044 172.046 C 439.119 171.411 436.196 170.766 433.273 170.12 C 431.281 169.686 429.29 169.252 427.298 168.819 C 422.434 167.761 417.571 166.693 412.71 165.62 C 418.965 158.274 418.965 158.274 422.183 154.831 C 423.067 153.884 423.067 153.884 423.97 152.917 C 424.565 152.283 425.16 151.649 425.773 150.995 C 426.371 150.353 426.97 149.711 427.587 149.05 C 428.752 147.804 429.922 146.563 431.097 145.326 C 432.55 143.79 433.974 142.226 435.394 140.659 C 437.71 138.62 437.71 138.62 441.71 138.62 Z" fill="#CB66ED" style="stroke-width: 1;"></path>
    <path d="M 455.71 243.62 C 450.889 254.405 444.388 263.92 437.71 273.62 C 438.7 273.95 439.69 274.28 440.71 274.62 C 436.553 274.797 434.626 274.449 431.487 271.608 C 429.157 268.998 426.92 266.333 424.71 263.62 C 423.487 262.198 422.259 260.781 421.023 259.37 C 420.471 258.736 419.919 258.102 419.351 257.448 C 416.908 254.727 414.327 252.173 411.71 249.62 C 412.04 248.63 412.37 247.64 412.71 246.62 C 417.387 246.188 422.064 245.761 426.742 245.338 C 428.33 245.194 429.917 245.049 431.505 244.902 C 447.739 243.4 447.739 243.4 455.71 243.62 Z" fill="#9E3CF0" style="stroke-width: 1;"></path>
    <path d="M 500.71 200.62 C 501.04 200.62 501.37 200.62 501.71 200.62 C 502.307 219.476 498.586 236.151 485.71 250.62 C 483.71 249.62 483.71 249.62 482.999 247.687 C 482.78 246.86 482.561 246.034 482.335 245.183 C 480.58 238.965 478.31 232.973 475.527 227.14 C 474.549 224.122 474.634 222.593 475.71 219.62 C 477.249 218.206 477.249 218.206 479.335 216.995 C 483.949 214.143 488.336 211.071 492.71 207.87 C 493.381 207.386 494.052 206.902 494.744 206.403 C 498.254 203.993 498.254 203.993 500.71 200.62 Z" fill="#D35AF0" style="stroke-width: 1;"></path>
    <path d="M 434.21 137.495 C 435.223 137.504 436.236 137.513 437.28 137.522 C 439.757 137.546 442.234 137.579 444.71 137.62 C 444.71 137.95 444.71 138.28 444.71 138.62 C 443.689 138.66 442.668 138.7 441.616 138.741 C 436.794 139.439 434.401 142.214 431.21 145.683 C 430.645 146.272 430.081 146.861 429.499 147.468 C 424.952 152.245 420.57 157.173 416.359 162.249 C 415.085 163.683 415.085 163.683 412.71 165.62 C 407.888 165.33 403.788 162.81 399.585 160.62 C 398.167 159.889 396.747 159.16 395.327 158.433 C 394.704 158.109 394.082 157.786 393.44 157.452 C 391.539 156.493 391.539 156.493 388.71 155.62 C 391.323 148.95 398.85 145.899 405.046 143.128 C 415.088 139.172 423.459 137.312 434.21 137.495 Z" fill="#AC4CE8" style="stroke-width: 1;"></path>
    <path d="M 366.71 221.62 C 384.993 219.38 384.993 219.38 390.963 222.978 C 394.699 226.262 397.678 230.079 400.412 234.221 C 402.057 235.993 403.403 236.056 405.71 236.62 C 407.999 240.299 408.71 242.236 408.71 246.62 C 404.848 245.814 401.284 244.308 397.644 242.827 C 396.258 242.274 394.872 241.721 393.485 241.169 C 391.308 240.3 389.132 239.426 386.961 238.541 C 384.86 237.686 382.753 236.849 380.644 236.015 C 379.994 235.745 379.344 235.475 378.674 235.197 C 376.648 234.37 376.648 234.37 373.71 233.62 C 372.72 234.28 371.73 234.94 370.71 235.62 C 370.037 233.852 369.372 232.08 368.71 230.308 C 368.339 229.322 367.968 228.335 367.585 227.319 C 366.71 224.62 366.71 224.62 366.71 221.62 Z" fill="#651FD7" style="stroke-width: 1;"></path>
    <path d="M 473.71 219.62 C 474.04 219.62 474.37 219.62 474.71 219.62 C 474.941 220.492 475.172 221.363 475.409 222.261 C 477.36 229.384 479.574 236.127 482.562 242.901 C 483.772 245.766 484.761 248.66 485.71 251.62 C 483.71 252.62 483.71 252.62 481.419 252.031 C 480.485 251.703 479.551 251.376 478.589 251.038 C 477.571 250.683 476.554 250.328 475.505 249.962 C 474.438 249.581 473.372 249.2 472.273 248.808 C 471.21 248.438 470.147 248.069 469.052 247.688 C 461.122 244.895 461.122 244.895 457.71 242.62 C 462.092 236.307 466.554 230.06 471.109 223.87 C 472.72 221.728 472.72 221.728 473.71 219.62 Z" fill="#BA47EB" style="stroke-width: 1;"></path>
    <path d="M 389.796 154.956 C 390.551 155.299 391.307 155.642 392.085 155.995 C 392.946 156.379 393.807 156.763 394.694 157.159 C 400.397 159.922 406.072 162.728 411.71 165.62 C 411.38 166.28 411.05 166.94 410.71 167.62 C 408.791 167.905 406.869 168.178 404.939 168.374 C 401.571 168.746 398.28 169.453 394.96 170.12 C 388.23 171.436 381.565 172.244 374.71 172.62 C 375.327 168.722 377.215 166.205 379.523 163.058 C 380.553 161.633 380.553 161.633 381.605 160.179 C 386.358 154.402 386.358 154.402 389.796 154.956 Z" fill="#8732DC" style="stroke-width: 1;"></path>
    <path d="M 364.71 209.62 C 372.96 209.62 381.21 209.62 389.71 209.62 C 390.37 211.27 391.03 212.92 391.71 214.62 C 392.769 216.255 393.876 217.859 395.023 219.433 C 398.104 223.733 400.952 228.107 403.71 232.62 C 400.095 231.126 398.066 229.059 395.523 226.12 C 394.828 225.326 394.133 224.532 393.417 223.714 C 391.71 221.62 391.71 221.62 390.71 219.62 C 382.79 219.29 374.87 218.96 366.71 218.62 C 366.38 219.61 366.05 220.6 365.71 221.62 C 365.38 217.66 365.05 213.7 364.71 209.62 Z" fill="#6920D9" style="stroke-width: 1;"></path>
    <path d="M 424.71 176.62 C 427.585 176.495 427.585 176.495 430.71 176.62 C 431.7 177.61 431.7 177.61 432.71 178.62 C 432.155 183.176 432.155 183.176 430.71 184.62 C 428.21 184.745 428.21 184.745 425.71 184.62 C 425.215 184.125 425.215 184.125 424.71 183.62 C 414.015 182.022 414.015 182.022 403.931 184.704 C 400.853 187.547 398.69 190.958 396.71 194.62 C 400.01 194.95 403.31 195.28 406.71 195.62 C 406.71 195.95 406.71 196.28 406.71 196.62 C 402.75 196.62 398.79 196.62 394.71 196.62 C 394.71 197.28 394.71 197.94 394.71 198.62 C 385.015 198.812 375.381 198.216 365.71 197.62 C 365.71 196.63 365.71 195.64 365.71 194.62 C 366.472 194.611 367.233 194.601 368.017 194.592 C 371.478 194.538 374.938 194.454 378.398 194.37 C 379.596 194.356 380.794 194.342 382.028 194.327 C 383.185 194.295 384.342 194.263 385.534 194.23 C 386.597 194.209 387.66 194.188 388.756 194.166 C 394.252 193.151 397.244 189.237 400.46 184.933 C 403.697 180.633 403.697 180.633 404.71 179.62 C 406.126 179.534 407.546 179.513 408.964 179.522 C 410.245 179.527 410.245 179.527 411.552 179.532 C 412.45 179.541 413.348 179.549 414.273 179.558 C 415.174 179.562 416.076 179.567 417.005 179.571 C 419.24 179.583 421.475 179.6 423.71 179.62 C 424.04 178.63 424.37 177.64 424.71 176.62 Z" fill="#C057F3" style="stroke-width: 1;"></path>
    <path d="M 428.523 190.245 C 430.134 190.286 430.134 190.286 431.778 190.327 C 434.424 190.398 437.066 190.496 439.71 190.62 C 439.71 190.95 439.71 191.28 439.71 191.62 C 442.68 191.95 445.65 192.28 448.71 192.62 C 448.71 192.95 448.71 193.28 448.71 193.62 C 447.792 193.624 446.874 193.628 445.928 193.633 C 442.513 193.66 439.1 193.709 435.685 193.773 C 434.209 193.796 432.733 193.81 431.256 193.816 C 429.131 193.825 427.007 193.866 424.882 193.913 C 422.965 193.937 422.965 193.937 421.01 193.961 C 417.55 194.341 417.55 194.341 415.246 197.02 C 413.459 199.453 413.459 199.453 413.96 201.933 C 414.208 202.49 414.455 203.046 414.71 203.62 C 417.169 203.674 419.626 203.714 422.085 203.745 C 422.784 203.762 423.482 203.779 424.202 203.796 C 426.039 203.814 427.876 203.723 429.71 203.62 C 430.37 202.96 431.03 202.3 431.71 201.62 C 434.335 201.995 434.335 201.995 436.71 202.62 C 437.335 205.495 437.335 205.495 437.71 208.62 C 435.71 210.62 435.71 210.62 433.21 210.87 C 430.71 210.62 430.71 210.62 428.71 208.62 C 425.976 208.314 423.327 208.109 420.585 207.995 C 419.831 207.956 419.077 207.918 418.3 207.878 C 416.437 207.784 414.574 207.701 412.71 207.62 C 412.38 206.3 412.05 204.98 411.71 203.62 C 410.72 203.62 409.73 203.62 408.71 203.62 C 408.506 202.976 408.303 202.331 408.093 201.667 C 406.843 199.309 406.843 199.309 403.89 199.011 C 402.799 198.964 401.709 198.918 400.585 198.87 C 398.942 198.785 398.942 198.785 397.265 198.698 C 396.422 198.672 395.579 198.647 394.71 198.62 C 394.71 197.96 394.71 197.3 394.71 196.62 C 395.879 196.69 397.048 196.759 398.253 196.831 C 399.801 196.887 401.349 196.942 402.898 196.995 C 403.667 197.045 404.435 197.096 405.228 197.147 C 407.53 197.207 409.473 197.183 411.71 196.62 C 412.889 195.09 414.066 193.557 415.166 191.969 C 418.655 188.921 424.17 190.038 428.523 190.245 Z" fill="#CE6BEE" style="stroke-width: 1;"></path>
    <path d="M 366.71 218.62 C 387.385 216.868 387.385 216.868 392.698 219.667 C 395.895 222.433 397.82 225.896 399.71 229.62 C 402.118 232.028 402.703 231.876 405.991 231.886 C 406.833 231.888 407.675 231.891 408.542 231.894 C 409.423 231.886 410.303 231.878 411.21 231.87 C 412.531 231.882 412.531 231.882 413.878 231.894 C 414.72 231.891 415.562 231.888 416.429 231.886 C 417.202 231.884 417.974 231.881 418.771 231.879 C 420.947 231.788 420.947 231.788 422.71 229.62 C 427.266 230.176 427.266 230.176 428.71 231.62 C 428.898 234.058 428.898 234.058 428.71 236.62 C 428.05 237.28 427.39 237.94 426.71 238.62 C 422.155 238.065 422.155 238.065 420.71 236.62 C 419.303 236.548 417.892 236.536 416.484 236.55 C 415.616 236.54 414.748 236.529 413.855 236.519 C 412.032 236.503 410.209 236.51 408.386 236.542 C 403.431 236.44 400.478 235.99 396.874 232.44 C 395.281 230.644 393.872 228.871 392.57 226.854 C 390.808 224.242 389.355 222.768 386.262 222.059 C 383.293 221.805 380.378 221.738 377.398 221.745 C 376.371 221.725 375.344 221.704 374.286 221.683 C 371.76 221.636 369.237 221.616 366.71 221.62 C 366.71 220.63 366.71 219.64 366.71 218.62 Z" fill="#A442F3" style="stroke-width: 1;"></path>
    <path d="M 364.71 194.62 C 365.04 195.61 365.37 196.6 365.71 197.62 C 366.975 197.574 368.239 197.527 369.542 197.48 C 371.202 197.442 372.862 197.406 374.523 197.37 C 375.356 197.337 376.189 197.303 377.048 197.269 C 383.197 197.17 383.197 197.17 385.722 199.386 C 386.71 201.62 386.71 201.62 387.71 205.62 C 380.12 205.62 372.53 205.62 364.71 205.62 C 364.71 201.99 364.71 198.36 364.71 194.62 Z" fill="#661ED6" style="stroke-width: 1;"></path>
    <path d="M 388.71 206.62 C 392.428 205.814 394.141 205.479 397.71 206.62 C 398.896 208.127 400.074 209.644 401.165 211.221 C 404.491 215.937 407.183 219.117 413.053 220.286 C 420.714 220.92 428.337 220.779 436.011 220.394 C 437.347 220.506 437.347 220.506 438.71 220.62 C 439.37 221.61 440.03 222.6 440.71 223.62 C 436.336 223.895 431.967 224.093 427.588 224.224 C 426.103 224.279 424.619 224.354 423.136 224.45 C 410.173 225.267 410.173 225.267 405.475 221.193 C 402.383 218.033 399.692 214.584 397.71 210.62 C 395.584 210.154 395.584 210.154 393.148 209.995 C 392.321 209.92 391.495 209.846 390.644 209.769 C 390.006 209.72 389.368 209.671 388.71 209.62 C 388.71 208.63 388.71 207.64 388.71 206.62 Z" fill="#C661F4" style="stroke-width: 1;"></path>
    <path d="M 67.71 227.62 C 68.37 227.62 69.03 227.62 69.71 227.62 C 72.07 231.699 74.414 235.786 76.731 239.889 C 77.537 241.315 78.351 242.736 79.167 244.155 C 80.825 247.196 81.752 249.12 81.46 252.62 C 81.213 253.28 80.965 253.94 80.71 254.62 C 78.686 252.688 77.289 250.989 75.71 248.62 C 76.04 250.93 76.37 253.24 76.71 255.62 C 76.05 255.62 75.39 255.62 74.71 255.62 C 73.532 251.895 72.37 248.164 71.21 244.433 C 70.876 243.378 70.542 242.322 70.198 241.235 C 69.883 240.214 69.567 239.192 69.241 238.14 C 68.801 236.734 68.801 236.734 68.353 235.299 C 67.713 232.633 67.589 230.35 67.71 227.62 Z" fill="#1CA5BD" style="stroke-width: 1;"></path>
    <path d="M 422.71 229.62 C 427.266 230.176 427.266 230.176 428.71 231.62 C 428.898 234.058 428.898 234.058 428.71 236.62 C 428.05 237.28 427.39 237.94 426.71 238.62 C 422.155 238.065 422.155 238.065 420.71 236.62 C 419.224 236.464 417.731 236.369 416.237 236.304 C 414.889 236.241 414.889 236.241 413.513 236.177 C 412.567 236.137 411.622 236.098 410.648 236.058 C 409.698 236.014 408.749 235.971 407.771 235.927 C 405.417 235.82 403.064 235.718 400.71 235.62 C 400.38 234.96 400.05 234.3 399.71 233.62 C 402.431 232.865 404.929 232.473 407.749 232.374 C 408.494 232.341 409.239 232.308 410.007 232.274 C 411.567 232.213 413.127 232.156 414.687 232.103 C 419.169 232.072 419.169 232.072 422.71 229.62 Z" fill="#D06BF1" style="stroke-width: 1;"></path>
    <path d="M 367.71 183.62 C 368.04 184.28 368.37 184.94 368.71 185.62 C 370.009 185.558 370.009 185.558 371.335 185.495 C 374.834 185.625 377.456 186.38 380.71 187.62 C 381.04 189.6 381.37 191.58 381.71 193.62 C 376.43 193.62 371.15 193.62 365.71 193.62 C 366.37 190.32 367.03 187.02 367.71 183.62 Z" fill="#6821D6" style="stroke-width: 1;"></path>
    <path d="M 424.71 176.62 C 427.585 176.495 427.585 176.495 430.71 176.62 C 431.37 177.28 432.03 177.94 432.71 178.62 C 432.155 183.176 432.155 183.176 430.71 184.62 C 428.273 184.808 428.273 184.808 425.71 184.62 C 425.05 183.96 424.39 183.3 423.71 182.62 C 421.778 182.252 421.778 182.252 419.577 182.206 C 418.369 182.148 418.369 182.148 417.136 182.089 C 416.294 182.058 415.452 182.027 414.585 181.995 C 413.736 181.956 412.886 181.918 412.011 181.878 C 409.911 181.784 407.811 181.701 405.71 181.62 C 405.71 180.96 405.71 180.3 405.71 179.62 C 411.65 179.62 417.59 179.62 423.71 179.62 C 424.04 178.63 424.37 177.64 424.71 176.62 Z" fill="#DE7FEB" style="stroke-width: 1;"></path>
    <path d="M 82.71 151.62 C 82.71 155.55 80.934 157.926 78.96 161.183 C 75.631 166.816 72.879 172.427 70.71 178.62 C 70.38 178.62 70.05 178.62 69.71 178.62 C 69.454 173.274 70.271 168.878 72.023 163.87 C 72.236 163.211 72.449 162.553 72.669 161.874 C 73.819 158.489 74.784 155.789 77.71 153.62 C 79.835 152.995 79.835 152.995 81.71 152.62 C 82.04 152.29 82.37 151.96 82.71 151.62 Z" fill="#32EEED" style="stroke-width: 1;"></path>
    <path d="M 214.71 274.62 C 215.37 274.95 216.03 275.28 216.71 275.62 C 215.968 276.198 215.225 276.775 214.46 277.37 C 211.784 279.459 211.784 279.459 209.952 281.495 C 207.243 284.062 204.264 285.954 201.085 287.87 C 200.207 288.415 200.207 288.415 199.312 288.972 C 194.971 291.62 194.971 291.62 192.71 291.62 C 193.04 290.63 193.37 289.64 193.71 288.62 C 193.05 287.96 192.39 287.3 191.71 286.62 C 192.449 286.34 193.187 286.061 193.948 285.772 C 200.692 283.107 206.567 280.009 212.53 275.878 C 213.25 275.463 213.969 275.048 214.71 274.62 Z" fill="#247DB3" style="stroke-width: 1;"></path>
    <path d="M 427.898 220.37 C 429.413 220.339 429.413 220.339 430.958 220.308 C 431.922 220.302 432.885 220.297 433.878 220.292 C 434.757 220.283 435.637 220.273 436.543 220.264 C 437.616 220.44 437.616 220.44 438.71 220.62 C 439.37 221.61 440.03 222.6 440.71 223.62 C 431.14 223.62 421.57 223.62 411.71 223.62 C 411.71 222.96 411.71 222.3 411.71 221.62 C 417.127 220.405 422.368 220.399 427.898 220.37 Z" fill="#D06CEF" style="stroke-width: 1;"></path>
    <path d="M 431.71 201.62 C 434.398 201.933 434.398 201.933 436.71 202.62 C 437.335 205.495 437.335 205.495 437.71 208.62 C 435.71 210.62 435.71 210.62 433.46 210.995 C 429.797 210.496 427.64 208.801 424.71 206.62 C 425.308 206.352 425.906 206.084 426.523 205.808 C 428.766 204.76 428.766 204.76 430.148 202.933 C 430.663 202.5 431.179 202.066 431.71 201.62 Z" fill="#DB80EC" style="stroke-width: 1;"></path>
    <path d="M 77.71 161.62 C 78.7 162.28 79.69 162.94 80.71 163.62 C 78.565 169.299 75.582 174.109 72.234 179.167 C 70.584 181.611 70.584 181.611 69.71 184.62 C 69.05 184.62 68.39 184.62 67.71 184.62 C 68.205 180.165 68.205 180.165 68.71 175.62 C 69.37 175.95 70.03 176.28 70.71 176.62 C 71.132 175.621 71.553 174.622 71.987 173.593 C 72.541 172.289 73.094 170.986 73.648 169.683 C 73.925 169.023 74.203 168.364 74.489 167.685 C 76.597 162.733 76.597 162.733 77.71 161.62 Z" fill="#1BAFC3" style="stroke-width: 1;"></path>
    <path d="M 526.71 227.62 C 527.37 227.62 528.03 227.62 528.71 227.62 C 528.38 230.26 528.05 232.9 527.71 235.62 C 527.05 235.62 526.39 235.62 525.71 235.62 C 525.456 236.307 525.202 236.994 524.941 237.702 C 524.596 238.603 524.252 239.504 523.898 240.433 C 523.561 241.326 523.225 242.219 522.878 243.14 C 521.748 245.539 520.699 246.904 518.71 248.62 C 517.441 247.097 517.441 247.097 516.71 244.62 C 518.034 241.876 519.365 239.522 521.023 236.995 C 521.873 235.649 522.723 234.302 523.573 232.956 C 524.631 231.305 524.631 231.305 525.71 229.62 C 526.04 228.96 526.37 228.3 526.71 227.62 Z" fill="#A63DC3" style="stroke-width: 1;"></path>
    <path d="M 400.101 122.882 C 400.632 123.125 401.163 123.369 401.71 123.62 C 400.71 126.62 400.71 126.62 399.175 127.663 C 398.206 128.123 398.206 128.123 397.218 128.593 C 396.513 128.935 395.808 129.277 395.081 129.63 C 394.34 129.977 393.599 130.325 392.835 130.683 C 391.379 131.38 389.923 132.079 388.468 132.78 C 387.82 133.086 387.171 133.391 386.504 133.706 C 384.454 134.707 384.454 134.707 381.71 136.62 C 381.71 135.63 381.71 134.64 381.71 133.62 C 383.03 133.29 384.468 131.091 385.828 130.751 C 385.828 130.091 385.71 131.3 385.71 130.62 C 388.194 128.64 388.194 128.64 391.46 126.433 C 392.527 125.697 393.595 124.961 394.694 124.202 C 397.71 122.62 397.71 122.62 400.101 122.882 Z" fill="#8936C2" style="stroke-width: 1;"></path>
    <path d="M 69.71 234.62 C 72.422 236.989 73.632 239.291 74.96 242.62 C 75.316 243.486 75.672 244.353 76.038 245.245 C 76.71 247.62 76.71 247.62 75.71 250.62 C 76.104 253.258 76.104 253.258 76.71 255.62 C 76.05 255.62 75.39 255.62 74.71 255.62 C 73.868 253.06 73.036 250.498 72.21 247.933 C 71.852 246.851 71.852 246.851 71.487 245.747 C 70.266 241.926 69.389 238.686 69.71 234.62 Z" fill="#3AEDEF" style="stroke-width: 1;"></path>
    <path d="M 365.71 194.62 C 370.99 194.62 376.27 194.62 381.71 194.62 C 382.04 195.61 382.37 196.6 382.71 197.62 C 377.1 197.62 371.49 197.62 365.71 197.62 C 365.71 196.63 365.71 195.64 365.71 194.62 Z" fill="#A43FF2" style="stroke-width: 1;"></path>
    <path d="M 76.71 162.62 C 74.962 168.088 73.052 173.378 70.71 178.62 C 70.38 178.62 70.05 178.62 69.71 178.62 C 69.503 173.547 69.931 169.396 71.71 164.62 C 74.71 162.62 74.71 162.62 76.71 162.62 Z" fill="#3DEAEA" style="stroke-width: 1;"></path>
    <path d="M 525.71 234.62 C 526.04 234.62 526.37 234.62 526.71 234.62 C 526.186 240.488 524.949 245.169 522.71 250.62 C 521.72 249.96 520.73 249.3 519.71 248.62 C 521.545 243.88 523.63 239.256 525.71 234.62 Z" fill="#E969EF" style="stroke-width: 1;"></path>
    <path d="M 408.773 232.37 C 409.63 232.344 410.487 232.319 411.37 232.292 C 413.71 232.62 413.71 232.62 416.71 235.62 C 411.43 235.62 406.15 235.62 400.71 235.62 C 400.38 234.96 400.05 234.3 399.71 233.62 C 402.772 232.739 405.589 232.428 408.773 232.37 Z" fill="#C55DF5" style="stroke-width: 1;"></path>
    <path d="M 74.71 242.62 C 76.597 242.948 76.597 242.948 78.71 243.62 C 80.812 246.81 81.815 248.655 81.398 252.495 C 81.171 253.196 80.944 253.898 80.71 254.62 C 78.031 252.301 77.048 250.302 76.023 246.933 C 75.771 246.124 75.52 245.316 75.261 244.483 C 75.079 243.869 74.897 243.254 74.71 242.62 Z" fill="#24B3CB" style="stroke-width: 1;"></path>
    <path d="M 386.71 279.62 C 391.682 281.112 396.129 283.225 400.71 285.62 C 400.05 286.28 399.39 286.94 398.71 287.62 C 394.022 287.62 391.392 284.946 388.066 281.995 C 386.71 280.62 386.71 280.62 386.71 279.62 Z" fill="#7D2FB4" style="stroke-width: 1;"></path>
    <path d="M 515.71 245.62 C 516.37 245.62 517.03 245.62 517.71 245.62 C 518.398 247.37 518.398 247.37 518.71 249.62 C 517.585 251.87 517.585 251.87 515.71 253.62 C 513.023 253.87 513.023 253.87 510.71 253.62 C 512.08 250.671 513.588 248.095 515.71 245.62 Z" fill="#9E38B9" style="stroke-width: 1;"></path>
    <path d="M 201.71 125.62 C 206.67 127.835 209.571 130.101 212.71 134.62 C 209.168 133.254 205.784 131.711 202.398 129.995 C 201.515 129.549 200.632 129.103 199.722 128.644 C 199.058 128.306 198.394 127.968 197.71 127.62 C 199.491 126.522 199.491 126.522 201.71 125.62 Z" fill="#1F77AF" style="stroke-width: 1;"></path>
    <path d="M 368.71 183.62 C 374.149 183.403 378.581 183.516 383.71 185.62 C 383.71 185.95 383.71 186.28 383.71 186.62 C 378.584 186.723 373.76 186.656 368.71 185.62 C 368.71 184.96 368.71 184.3 368.71 183.62 Z" fill="#AC43E4" style="stroke-width: 1;"></path>
    <path d="M 214.71 274.62 C 215.37 274.95 216.03 275.28 216.71 275.62 C 215.968 276.198 215.225 276.775 214.46 277.37 C 211.718 279.527 211.718 279.527 209.523 281.87 C 207.71 283.62 207.71 283.62 205.71 283.62 C 205.71 282.63 205.71 281.64 205.71 280.62 C 207.679 279.015 207.679 279.015 210.21 277.433 C 211.045 276.903 211.881 276.373 212.741 275.827 C 213.391 275.429 214.041 275.031 214.71 274.62 Z" fill="#2D89C7" style="stroke-width: 1;"></path>
    <path d="M 439.71 190.62 C 443.67 190.62 447.63 190.62 451.71 190.62 C 451.38 191.61 451.05 192.6 450.71 193.62 C 446.75 193.29 442.79 192.96 438.71 192.62 C 439.04 191.96 439.37 191.3 439.71 190.62 Z" fill="#E584ED" style="stroke-width: 1;"></path>
    <path d="M 384.71 198.62 C 386.69 198.62 388.67 198.62 390.71 198.62 C 390.71 202.137 389.886 202.991 387.71 205.62 C 386.72 203.31 385.73 201 384.71 198.62 Z" fill="#852CE2" style="stroke-width: 1;"></path>
    <path d="M 524.71 164.62 C 525.04 167.92 525.37 171.22 525.71 174.62 C 525.05 174.62 524.39 174.62 523.71 174.62 C 522.72 171.65 521.73 168.68 520.71 165.62 C 522.71 164.62 522.71 164.62 524.71 164.62 Z" fill="#E46DEB" style="stroke-width: 1;"></path>
    <path d="M 525.71 171.62 C 527.381 174.582 528.037 176.991 528.335 180.37 C 528.41 181.169 528.485 181.969 528.562 182.792 C 528.611 183.395 528.66 183.999 528.71 184.62 C 528.05 184.62 527.39 184.62 526.71 184.62 C 526.346 183.018 525.994 181.413 525.648 179.808 C 525.45 178.914 525.253 178.021 525.05 177.101 C 524.71 174.62 524.71 174.62 525.71 171.62 Z" fill="#B257C7" style="stroke-width: 1;"></path>
    <path d="M 67.71 227.62 C 68.37 227.62 69.03 227.62 69.71 227.62 C 71.14 229.975 71.797 231.1 71.335 233.87 C 71.129 234.448 70.923 235.025 70.71 235.62 C 70.05 235.62 69.39 235.62 68.71 235.62 C 68.38 232.98 68.05 230.34 67.71 227.62 Z" fill="#27BAC3" style="stroke-width: 1;"></path>
    <path d="M 396.71 222.62 C 399.359 225.817 401.65 229.015 403.71 232.62 C 399.923 231.132 397.936 229 395.71 225.62 C 396.04 224.63 396.37 223.64 396.71 222.62 Z" fill="#7D27DF" style="stroke-width: 1;"></path>
    <path d="M 68.71 175.62 C 69.7 175.95 70.69 176.28 71.71 176.62 C 71.187 179.383 70.601 181.946 69.71 184.62 C 69.05 184.62 68.39 184.62 67.71 184.62 C 68.04 181.65 68.37 178.68 68.71 175.62 Z" fill="#2BBAC2" style="stroke-width: 1;"></path>
    <path d="M 408.71 232.62 C 407.72 233.115 407.72 233.115 406.71 233.62 C 406.71 234.28 406.71 234.94 406.71 235.62 C 404.73 235.62 402.75 235.62 400.71 235.62 C 400.38 234.96 400.05 234.3 399.71 233.62 C 402.783 232.71 405.511 232.531 408.71 232.62 Z" fill="#BE53F6" style="stroke-width: 1;"></path>
  </g>
  <g>
    <path d="M 233.724 415.267 C 295.837 415.267 295.837 415.267 306.915 425.24 C 313.813 432.442 316.891 439.281 317.162 449.267 C 316.827 459.215 314.414 467.692 307.724 475.267 C 306.453 477.595 298.732 482.886 296.638 483.13 C 284.966 486.207 269.417 486.597 277.267 485.365 C 278.325 485.199 276.877 485.704 274.112 485.566 C 261.668 484.944 220.96 483.498 244.971 478.265 C 247.1 477.801 241.137 477.539 244.269 476.982 C 251.242 475.741 289.041 478.086 297.593 470.706 C 308.465 461.323 304.42 442.846 296.111 434.412 C 286.049 424.199 265.064 419.753 243.057 424.586 C 242.625 424.681 244.268 457.961 244.697 472.567 C 245.023 483.666 278.907 485.765 277.844 485.761 C 275.891 485.756 262.007 485.32 260.054 485.316 C 255.277 485.306 250.501 485.286 245.724 485.267 C 245.724 495.497 245.724 505.727 245.724 516.267 C 241.764 516.267 237.804 516.267 233.724 516.267 C 233.724 482.937 233.724 449.607 233.724 415.267 Z" fill="#9850F6" style="stroke-width: 1;"></path>
    <path d="M 272.71 431.495 C 275.71 431.62 275.71 431.62 276.71 432.62 C 276.835 435.12 276.835 435.12 276.71 437.62 C 276.38 437.95 276.05 438.28 275.71 438.62 C 275.639 439.973 275.626 441.328 275.648 442.683 C 275.668 443.982 275.689 445.281 275.71 446.62 C 279.589 446.981 281.169 447.055 284.273 444.558 C 286.71 442.62 286.71 442.62 289.46 442.808 C 291.71 443.62 291.71 443.62 292.71 444.62 C 292.835 447.12 292.835 447.12 292.71 449.62 C 291.71 450.62 291.71 450.62 288.769 450.718 C 287.574 450.706 286.379 450.695 285.148 450.683 C 283.351 450.669 283.351 450.669 281.519 450.655 C 280.592 450.644 279.665 450.632 278.71 450.62 C 278.463 452.538 278.463 452.538 278.21 454.495 C 278.071 455.574 278.071 455.574 277.929 456.675 C 277.673 458.625 277.673 458.625 277.71 460.62 C 279.36 460.95 281.01 461.28 282.71 461.62 C 283.335 464.495 283.335 464.495 283.71 467.62 C 281.71 469.62 281.71 469.62 279.21 469.87 C 276.71 469.62 276.71 469.62 274.71 467.62 C 274.71 464.953 274.71 462.287 274.71 459.62 C 272.883 457.371 272.883 457.371 270.21 457.37 C 267.537 457.371 267.537 457.371 265.71 459.62 C 265.017 461.946 264.349 464.279 263.71 466.62 C 262.71 467.62 262.71 467.62 260.273 467.808 C 257.71 467.62 257.71 467.62 255.71 465.62 C 255.46 463.12 255.46 463.12 255.71 460.62 C 258.408 457.922 261.059 457.581 264.71 456.62 C 265.7 456.29 266.69 455.96 267.71 455.62 C 267.71 453.97 267.71 452.32 267.71 450.62 C 266.939 450.632 266.168 450.643 265.374 450.655 C 263.87 450.669 263.87 450.669 262.335 450.683 C 261.337 450.694 260.34 450.706 259.312 450.718 C 256.71 450.62 256.71 450.62 254.71 449.62 C 254.668 447.621 254.669 445.62 254.71 443.62 C 255.71 442.62 255.71 442.62 258.773 442.558 C 260.227 442.589 260.227 442.589 261.71 442.62 C 262.37 443.94 263.03 445.26 263.71 446.62 C 266.02 446.62 268.33 446.62 270.71 446.62 C 270.877 443.204 270.877 443.204 270.71 439.62 C 270.05 438.96 269.39 438.3 268.71 437.62 C 268.523 435.058 268.523 435.058 268.71 432.62 C 269.71 431.62 269.71 431.62 272.71 431.495 Z" fill="#BE60EF" style="stroke-width: 1;"></path>
    <path d="M 267.71 452.62 C 269.03 453.94 270.35 455.26 271.71 456.62 C 270.947 456.785 270.184 456.95 269.398 457.12 C 265.843 459.104 265.459 461.079 264.288 464.843 C 263.71 466.62 263.71 466.62 262.71 467.62 C 260.273 467.808 260.273 467.808 257.71 467.62 C 255.71 465.62 255.71 465.62 255.46 463.12 C 255.71 460.62 255.71 460.62 257.71 458.62 C 260.029 457.904 262.363 457.238 264.71 456.62 C 265.7 456.29 266.69 455.96 267.71 455.62 C 267.71 454.63 267.71 453.64 267.71 452.62 Z" fill="#AB52E9" style="stroke-width: 1;"></path>
    <path d="M 272.71 431.495 C 275.71 431.62 275.71 431.62 276.71 432.62 C 276.835 435.12 276.835 435.12 276.71 437.62 C 276.38 437.95 276.05 438.28 275.71 438.62 C 275.479 439.968 275.299 441.324 275.148 442.683 C 275.003 443.982 274.859 445.281 274.71 446.62 C 273.72 446.62 272.73 446.62 271.71 446.62 C 271.586 445.506 271.463 444.393 271.335 443.245 C 271.063 439.589 271.063 439.589 268.71 437.62 C 268.523 435.058 268.523 435.058 268.71 432.62 C 269.71 431.62 269.71 431.62 272.71 431.495 Z" fill="#CC69F5" style="stroke-width: 1;"></path>
    <path d="M 274.71 457.62 C 275.7 457.95 276.69 458.28 277.71 458.62 C 277.71 459.28 277.71 459.94 277.71 460.62 C 279.36 460.95 281.01 461.28 282.71 461.62 C 283.335 464.495 283.335 464.495 283.71 467.62 C 281.71 469.62 281.71 469.62 279.21 469.87 C 276.71 469.62 276.71 469.62 274.71 467.62 C 274.515 465.237 274.515 465.237 274.585 462.495 C 274.603 461.585 274.621 460.675 274.64 459.737 C 274.663 459.039 274.686 458.34 274.71 457.62 Z" fill="#AB51E4" style="stroke-width: 1;"></path>
    <path d="M 289.46 442.808 C 291.71 443.62 291.71 443.62 292.71 444.62 C 292.835 447.12 292.835 447.12 292.71 449.62 C 292.38 449.95 292.05 450.28 291.71 450.62 C 289.852 450.53 287.998 450.374 286.148 450.183 C 284.63 450.03 284.63 450.03 283.081 449.874 C 281.907 449.748 281.907 449.748 280.71 449.62 C 282.163 445.261 284.656 442.48 289.46 442.808 Z" fill="#CB66F0" style="stroke-width: 1;"></path>
    <path d="M 276.71 460.62 C 279.68 461.115 279.68 461.115 282.71 461.62 C 282.71 463.27 282.71 464.92 282.71 466.62 C 280.73 466.95 278.75 467.28 276.71 467.62 C 276.71 465.31 276.71 463 276.71 460.62 Z" fill="#B756F7" style="stroke-width: 1;"></path>
    <path d="M 272.71 436.62 C 274.195 437.61 274.195 437.61 275.71 438.62 C 275.38 441.26 275.05 443.9 274.71 446.62 C 273.72 446.62 272.73 446.62 271.71 446.62 C 271.585 438.87 271.585 438.87 272.71 436.62 Z" fill="#C871EF" style="stroke-width: 1;"></path>
    <path d="M 257.71 460.62 C 259.36 460.62 261.01 460.62 262.71 460.62 C 262.71 462.27 262.71 463.92 262.71 465.62 C 261.72 465.95 260.73 466.28 259.71 466.62 C 259.05 466.29 258.39 465.96 257.71 465.62 C 257.71 463.97 257.71 462.32 257.71 460.62 Z" fill="#B761F7" style="stroke-width: 1;"></path>
    <path d="M 255.71 442.62 C 257.36 442.95 259.01 443.28 260.71 443.62 C 259.72 444.115 259.72 444.115 258.71 444.62 C 258.38 445.61 258.05 446.6 257.71 447.62 C 256.72 447.62 255.73 447.62 254.71 447.62 C 255.04 445.97 255.37 444.32 255.71 442.62 Z" fill="#C561F7" style="stroke-width: 1;"></path>
    <path d="M 267.71 452.62 C 269.03 453.94 270.35 455.26 271.71 456.62 C 268.804 457.877 266.914 458.62 263.71 458.62 C 264.37 457.63 265.03 456.64 265.71 455.62 C 266.37 455.62 267.03 455.62 267.71 455.62 C 267.71 454.63 267.71 453.64 267.71 452.62 Z" fill="#9D4ECE" style="stroke-width: 1;"></path>
    <path d="M 147.148 446.37 C 153.374 451.522 156.331 457.722 157.71 465.62 C 157.968 469.529 157.944 473.423 157.905 477.339 C 157.903 478.437 157.9 479.536 157.897 480.668 C 157.886 484.152 157.861 487.636 157.835 491.12 C 157.825 493.493 157.816 495.865 157.808 498.237 C 157.786 504.032 157.751 509.826 157.71 515.62 C 151.11 515.62 144.51 515.62 137.71 515.62 C 137.71 512.65 137.71 509.68 137.71 506.62 C 137.05 506.62 136.39 506.62 135.71 506.62 C 135.625 507.225 135.54 507.829 135.452 508.452 C 134.492 511.256 133.367 511.838 130.835 513.308 C 130.136 513.724 129.438 514.14 128.718 514.569 C 121.11 518.551 109.666 517.604 101.444 515.972 C 94.896 513.622 91.265 509.585 87.577 503.862 C 86.326 500.628 86.37 497.702 86.335 494.245 C 86.307 492.959 86.278 491.672 86.249 490.347 C 86.929 484.848 89.484 481.876 93.273 477.995 C 102.079 471.209 130.122 471.444 140.782 471.721 C 141.109 471.726 144.412 470.903 140.164 477.545 C 138.519 480.117 117.121 478.446 116.092 478.655 C 94.352 483.067 97.459 494.58 98.129 496.122 C 103.96 509.556 123.401 505.13 129.436 499.095 C 134.048 494.483 134.045 483.736 134.492 477.368 C 134.812 472.817 135.932 471.6 136.71 471.62 C 136.273 470.169 135.824 468.722 135.37 467.276 C 135.122 466.47 134.873 465.664 134.617 464.833 C 133.062 461.039 130.25 459.39 126.71 457.62 C 117.935 457.033 109.748 456.668 101.691 460.647 C 99.707 461.622 97.865 462.16 95.71 462.62 C 94.677 460.522 93.659 458.416 92.648 456.308 C 92.079 455.136 91.511 453.964 90.925 452.757 C 89.71 449.62 89.71 449.62 90.71 446.62 C 92.933 445.304 92.933 445.304 95.773 444.058 C 96.692 443.644 97.611 443.23 98.558 442.804 C 113.9 437.043 133.283 437.008 147.148 446.37 Z" fill="#1448B3" style="stroke-width: 1;"></path>
    <path d="M 389.71 445.62 C 395.225 450.373 398.54 456.443 399.71 463.62 C 399.793 465.399 399.828 467.18 399.824 468.961 C 399.823 470.522 399.823 470.522 399.823 472.115 C 399.818 473.226 399.813 474.338 399.808 475.483 C 399.806 476.631 399.805 477.778 399.803 478.96 C 399.798 482.617 399.785 486.275 399.773 489.933 C 399.768 492.415 399.763 494.897 399.759 497.38 C 399.748 503.46 399.731 509.54 399.71 515.62 C 396.08 515.62 392.45 515.62 388.71 515.62 C 388.71 512.65 388.71 509.68 388.71 506.62 C 387.986 507.174 387.261 507.729 386.515 508.3 C 385.065 509.386 385.065 509.386 383.585 510.495 C 382.634 511.214 381.682 511.934 380.702 512.675 C 374.68 516.59 369.313 516.96 362.335 516.933 C 361.523 516.949 360.711 516.965 359.874 516.981 C 351.754 516.988 345.205 514.902 339.187 509.269 C 334.434 503.962 334.17 498.363 334.359 491.495 C 335.012 486.155 337.167 483.082 341.085 479.37 C 351.347 472.529 361.298 472.336 373.273 472.495 C 373.533 472.497 394.195 471.925 390.218 473.864 C 388.707 474.6 389.599 484.345 386.139 483.24 C 380.855 481.553 369.334 481.555 362.13 482.92 C 352.735 484.702 347.113 487.714 345.4 490.13 C 340.459 497.102 351.69 503.915 352.288 503.919 C 353.663 503.929 371.741 507.042 378.421 500.368 C 387.146 491.651 384.914 472.597 386.71 472.62 C 386.438 470.518 386.151 468.418 385.859 466.319 C 385.7 465.15 385.542 463.98 385.38 462.775 C 384.519 458.718 383.105 456.964 379.71 454.62 C 375.382 452.145 371.603 452.197 366.71 452.183 C 365.864 452.179 365.019 452.176 364.148 452.173 C 356.829 452.312 351.176 454.196 344.71 457.62 C 343.72 457.95 342.73 458.28 341.71 458.62 C 337.71 451.995 337.71 451.995 337.71 448.62 C 339.538 447.651 341.373 446.696 343.21 445.745 C 344.741 444.945 344.741 444.945 346.304 444.128 C 359.228 438.407 377.635 437.65 389.71 445.62 Z" fill="#AB4BF0" style="stroke-width: 1;"></path>
    <path d="M 178.71 440.62 C 185.97 440.62 193.23 440.62 200.71 440.62 C 200.71 465.37 200.71 490.12 200.71 515.62 C 193.45 515.62 186.19 515.62 178.71 515.62 C 178.71 490.87 178.71 466.12 178.71 440.62 Z" fill="#1458BB" style="stroke-width: 1;"></path>
    <path d="M 501.71 440.62 C 501.71 444.25 501.71 447.88 501.71 451.62 C 500.864 451.707 500.019 451.793 499.148 451.882 C 490.37 452.969 484.476 454.656 478.335 461.12 C 475.7 465.174 474.469 468.668 474.391 473.502 C 474.371 474.443 474.352 475.383 474.331 476.353 C 474.314 477.856 474.314 477.856 474.296 479.39 C 474.277 480.426 474.257 481.462 474.237 482.529 C 474.178 485.83 474.131 489.131 474.085 492.433 C 474.047 494.674 474.008 496.916 473.968 499.157 C 473.872 504.645 473.788 510.132 473.71 515.62 C 469.75 515.62 465.79 515.62 461.71 515.62 C 461.71 491.2 461.71 466.78 461.71 441.62 C 465.34 441.62 468.97 441.62 472.71 441.62 C 472.71 445.58 472.71 449.54 472.71 453.62 C 473.37 453.62 474.03 453.62 474.71 453.62 C 475.106 452.725 475.106 452.725 475.511 451.812 C 480.979 441.819 491.34 440.236 501.71 440.62 Z" fill="#C558F1" style="stroke-width: 1;"></path>
    <path d="M 423.71 441.62 C 428 441.62 432.29 441.62 436.71 441.62 C 436.71 466.37 436.71 491.12 436.71 516.62 C 432.42 516.62 428.13 516.62 423.71 516.62 C 423.71 491.87 423.71 467.12 423.71 441.62 Z" fill="#B451EA" style="stroke-width: 1;"></path>
    <path d="M 187.71 396.62 C 189.71 396.578 191.711 396.579 193.71 396.62 C 194.71 397.62 194.71 397.62 194.773 400.183 C 194.752 400.987 194.731 401.791 194.71 402.62 C 193.72 403.115 193.72 403.115 192.71 403.62 C 192.71 405.27 192.71 406.92 192.71 408.62 C 194.69 408.62 196.67 408.62 198.71 408.62 C 199.04 406.97 199.37 405.32 199.71 403.62 C 202.085 402.995 202.085 402.995 204.71 402.62 C 206.71 404.62 206.71 404.62 206.898 407.183 C 206.71 409.62 206.71 409.62 205.71 410.62 C 203.382 410.988 201.048 411.323 198.71 411.62 C 198.38 413.27 198.05 414.92 197.71 416.62 C 200.384 417.511 202.947 418.097 205.71 418.62 C 206.092 420.276 206.424 421.945 206.71 423.62 C 205.71 424.62 205.71 424.62 202.648 424.683 C 201.678 424.662 200.709 424.641 199.71 424.62 C 199.215 422.145 199.215 422.145 198.71 419.62 C 196.73 419.62 194.75 419.62 192.71 419.62 C 192.543 422.037 192.543 422.037 192.71 424.62 C 193.37 425.28 194.03 425.94 194.71 426.62 C 194.335 429.245 194.335 429.245 193.71 431.62 C 191.335 431.745 191.335 431.745 188.71 431.62 C 188.05 430.96 187.39 430.3 186.71 429.62 C 187.085 426.995 187.085 426.995 187.71 424.62 C 188.37 424.62 189.03 424.62 189.71 424.62 C 189.05 422.64 188.39 420.66 187.71 418.62 C 186.06 418.95 184.41 419.28 182.71 419.62 C 182.586 420.239 182.463 420.858 182.335 421.495 C 181.71 423.62 181.71 423.62 179.71 425.62 C 177.585 425.245 177.585 425.245 175.71 424.62 C 175.085 422.245 175.085 422.245 174.71 419.62 C 177.472 416.858 179.917 417.042 183.71 416.62 C 183.71 414.97 183.71 413.32 183.71 411.62 C 182.039 411.682 182.039 411.682 180.335 411.745 C 176.71 411.62 176.71 411.62 174.71 409.62 C 175.085 406.995 175.085 406.995 175.71 404.62 C 177.36 404.29 179.01 403.96 180.71 403.62 C 181.102 404.425 181.494 405.229 181.898 406.058 C 183.48 408.851 183.48 408.851 186.398 409.433 C 187.161 409.495 187.924 409.556 188.71 409.62 C 188.877 406.704 188.877 406.704 188.71 403.62 C 188.05 402.96 187.39 402.3 186.71 401.62 C 187.085 398.995 187.085 398.995 187.71 396.62 Z" fill="#34EDF0" style="stroke-width: 1;"></path>
    <path d="M 434.71 409.62 C 437.335 411.683 437.335 411.683 438.71 414.62 C 438.785 418.905 438.401 420.85 435.523 424.058 C 432.147 425.933 430.509 426.332 426.71 425.62 C 423.835 423.558 423.835 423.558 421.71 420.62 C 421.09 416.694 421.121 414.619 423.148 411.183 C 426.946 408.866 430.381 408.716 434.71 409.62 Z" fill="#D468EF" style="stroke-width: 1;"></path>
    <path d="M 200.71 402.62 C 205.416 403.326 205.416 403.326 206.71 404.62 C 206.835 407.12 206.835 407.12 206.71 409.62 C 205.71 410.62 205.71 410.62 202.335 410.933 C 198.668 411.26 198.668 411.26 196.773 413.683 C 196.422 414.322 196.071 414.961 195.71 415.62 C 196.04 413.31 196.37 411 196.71 408.62 C 197.37 408.62 198.03 408.62 198.71 408.62 C 198.854 407.816 198.999 407.011 199.148 406.183 C 199.71 403.62 199.71 403.62 200.71 402.62 Z" fill="#2BE3E3" style="stroke-width: 1;"></path>
    <path d="M 176.71 403.62 C 179.148 403.808 179.148 403.808 181.71 404.62 C 182.773 406.558 182.773 406.558 183.71 408.62 C 185.744 409.888 185.744 409.888 187.71 410.62 C 187.05 410.62 186.39 410.62 185.71 410.62 C 185.71 412.27 185.71 413.92 185.71 415.62 C 185.05 414.3 184.39 412.98 183.71 411.62 C 182.039 411.682 182.039 411.682 180.335 411.745 C 176.71 411.62 176.71 411.62 174.71 409.62 C 175.266 405.065 175.266 405.065 176.71 403.62 Z" fill="#32E7ED" style="stroke-width: 1;"></path>
    <path d="M 189.71 419.62 C 190.37 419.62 191.03 419.62 191.71 419.62 C 194.26 427.1 194.26 427.1 194.71 429.62 C 194.38 430.28 194.05 430.94 193.71 431.62 C 191.335 431.745 191.335 431.745 188.71 431.62 C 188.05 430.96 187.39 430.3 186.71 429.62 C 187.085 426.995 187.085 426.995 187.71 424.62 C 188.37 424.62 189.03 424.62 189.71 424.62 C 189.71 422.97 189.71 421.32 189.71 419.62 Z" fill="#2BD3E1" style="stroke-width: 1;"></path>
    <path d="M 179.835 417.495 C 180.784 417.536 181.733 417.578 182.71 417.62 C 182.941 420.463 183.069 422.082 181.46 424.495 C 179.71 425.62 179.71 425.62 177.523 425.308 C 176.924 425.081 176.326 424.854 175.71 424.62 C 175.085 422.245 175.085 422.245 174.71 419.62 C 176.71 417.62 176.71 417.62 179.835 417.495 Z" fill="#34DBE9" style="stroke-width: 1;"></path>
    <path d="M 461.71 441.62 C 462.7 441.62 463.69 441.62 464.71 441.62 C 464.38 442.61 464.05 443.6 463.71 444.62 C 463.563 446.246 463.463 447.876 463.394 449.507 C 463.352 450.445 463.31 451.382 463.267 452.349 C 463.227 453.325 463.188 454.302 463.148 455.308 C 463.104 456.296 463.061 457.284 463.017 458.302 C 462.911 460.741 462.809 463.181 462.71 465.62 C 462.38 465.62 462.05 465.62 461.71 465.62 C 461.71 457.7 461.71 449.78 461.71 441.62 Z" fill="#DB68F5" style="stroke-width: 1;"></path>
    <path d="M 181.71 405.62 C 182.37 406.61 183.03 407.6 183.71 408.62 C 185.76 409.812 185.76 409.812 187.71 410.62 C 187.05 410.62 186.39 410.62 185.71 410.62 C 185.71 412.27 185.71 413.92 185.71 415.62 C 185.05 414.3 184.39 412.98 183.71 411.62 C 181.4 411.62 179.09 411.62 176.71 411.62 C 176.71 410.96 176.71 410.3 176.71 409.62 C 178.03 409.62 179.35 409.62 180.71 409.62 C 181.04 408.3 181.37 406.98 181.71 405.62 Z" fill="#2DD5DB" style="stroke-width: 1;"></path>
    <path d="M 200.71 402.62 C 202.773 403.058 202.773 403.058 204.71 403.62 C 203.72 403.62 202.73 403.62 201.71 403.62 C 201.71 404.28 201.71 404.94 201.71 405.62 C 202.37 405.95 203.03 406.28 203.71 406.62 C 203.05 406.62 202.39 406.62 201.71 406.62 C 201.71 407.28 201.71 407.94 201.71 408.62 C 200.72 408.62 199.73 408.62 198.71 408.62 C 199.585 403.745 199.585 403.745 200.71 402.62 Z" fill="#28D1D0" style="stroke-width: 1;"></path>
    <path d="M 188.71 426.62 C 190.03 426.95 191.35 427.28 192.71 427.62 C 192.71 428.94 192.71 430.26 192.71 431.62 C 191.39 431.62 190.07 431.62 188.71 431.62 C 188.71 429.97 188.71 428.32 188.71 426.62 Z" fill="#2FE6F9" style="stroke-width: 1;"></path>
  </g>
</svg>