<svg xmlns="http://www.w3.org/2000/svg" viewBox="0 0 150 150">
  <g transform="matrix(0.1, 0, 0, -0.1, -77.9171, 158.778)" stroke="none">
    <path fill="#8231d3" d="M 1427.12 1519.9 C 1239.12 1460.9 1112.12 1271.9 1112.12 1054.9 C 1112.12 927.898 1171.12 783.894 1259.12 696.894 C 1333.12 622.894 1346.12 612.894 1414.12 579.894 C 1497.12 539.894 1566.12 523.894 1668.12 523.894 L 1759.12 523.894 L 1830.12 671.894 C 1869.12 752.894 1913.12 854.894 1928.12 898.894 C 1952.12 970.898 1954.12 988.898 1949.12 1078.9 C 1946.12 1133.9 1937.12 1194.9 1930.12 1213.9 C 1889.12 1323.9 1823.12 1412.9 1740.12 1470.9 C 1657.12 1527.9 1520.12 1549.9 1427.12 1519.9 Z M 1587.12 1251.9 C 1615.12 1217.9 1619.12 1185.9 1597.12 1144.9 C 1581.12 1111.9 1564.12 1103.9 1517.12 1103.9 C 1451.12 1103.9 1419.12 1192.9 1462.12 1253.9 C 1495.12 1300.9 1547.12 1299.9 1587.12 1251.9 Z"></path>
    <path fill="#8231d3" d="M 1212.12 709.894 C 1212.12 703.894 1325.12 496.894 1355.12 448.894 C 1431.12 325.894 1525.12 183.894 1531.12 183.894 C 1537.12 183.894 1689.12 413.894 1698.12 437.894 C 1701.12 446.894 1682.12 453.894 1635.12 462.894 C 1486.12 489.894 1387.12 539.894 1285.12 640.894 C 1245.12 679.894 1212.12 710.894 1212.12 709.894 Z"></path>
    <path fill="#70439E" d="M 1337.12 599.894 C 1407.12 536.894 1525.12 487.894 1660.12 464.894 C 1711.12 456.894 1713.12 456.894 1727.12 482.894 L 1741.12 509.894 L 1656.12 511.894 C 1538.12 512.894 1453.12 539.894 1332.12 614.894 L 1297.12 635.894 L 1337.12 599.894 Z"></path>
  </g>
</svg>