<svg xmlns="http://www.w3.org/2000/svg" xmlns:xlink="http://www.w3.org/1999/xlink" width="150" height="150" viewBox="0 0 150 150">
 <g transform="translate(0.000000,170.000000) scale(0.100000,-0.100000)"
stroke="none">
<path fill="#8231d3" d="M515 1546 c-188 -59 -315 -248 -315 -465 0 -127 59 -271 147 -358 74
-74 87 -84 155 -117 83 -40 152 -56 254 -56 l91 0 71 148 c39 81 83 183 98
227 24 72 26 90 21 180 -3 55 -12 116 -19 135 -41 110 -107 199 -190 257 -83
57 -220 79 -313 49z m160 -268 c28 -34 32 -66 10 -107 -16 -33 -33 -41 -80
-41 -66 0 -98 89 -55 150 33 47 85 46 125 -2z"/>
<path fill="#8231d3" d="M300 736 c0 -6 113 -213 143 -261 76 -123 170 -265 176 -265 6 0 158
230 167 254 3 9 -16 16 -63 25 -149 27 -248 77 -350 178 -40 39 -73 70 -73 69z"/>

<path fill="#70439E" d="M425 626 c70 -63 188 -112 323 -135 51 -8 53 -8 67 18 l14 27 -85 2
c-118 1 -203 28 -324 103 l-35 21 40 -36z"/>
<path d="M5353 1419 c-255 -33 -412 -288 -334 -540 53 -170 184 -265 381 -276
129 -8 243 25 325 92 l30 25 -57 57 c-53 53 -58 56 -75 41 -10 -9 -38 -26 -63
-39 -64 -33 -196 -33 -259 0 -91 47 -130 117 -131 229 0 124 59 213 166 247
93 29 207 10 286 -47 16 -11 25 -6 70 40 l53 53 -30 25 c-46 39 -146 84 -211
94 -65 11 -63 11 -151 -1z"/>
  </g>
</svg>
